<?xml version="1.0" standalone="no"?>
<!DOCTYPE svg PUBLIC "-//W3C//DTD SVG 20010904//EN"
 "http://www.w3.org/TR/2001/REC-SVG-20010904/DTD/svg10.dtd">
<svg version="1.0" xmlns="http://www.w3.org/2000/svg"
 width="300.000000pt" height="83.000000pt" viewBox="0 0 300.000000 83.000000"
 preserveAspectRatio="xMidYMid meet">
<metadata>
Created by potrace 1.10, written by Peter Selinger 2001-2011
</metadata>
<g transform="translate(0.000000,83.000000) scale(0.100000,-0.100000)"
fill="#000000" stroke="none">
<path d="M2063 803 c-7 -2 -13 -16 -13 -29 0 -17 -6 -24 -19 -24 -11 0 -26 -8
-33 -18 -7 -11 -29 -22 -49 -26 -95 -17 -114 -81 -55 -183 18 -32 50 -88 70
-125 38 -70 76 -108 107 -108 14 0 19 -7 19 -30 0 -29 -1 -30 -49 -30 -64 0
-103 -14 -95 -35 9 -23 292 -22 301 0 8 23 1 27 -71 32 -65 6 -66 6 -66 34 0
22 5 29 19 29 11 0 32 13 48 29 38 39 163 272 163 305 0 36 -43 75 -94 83 -23
4 -44 6 -48 5 -4 -1 -5 5 -2 13 4 9 -3 16 -20 21 -15 3 -26 13 -26 23 0 34
-45 52 -87 34z m77 -31 c0 -15 -37 -43 -51 -40 -8 2 -14 -6 -15 -17 -2 -41 -4
-46 -16 -39 -7 5 -9 2 -5 -9 3 -9 0 -18 -9 -21 -7 -3 -13 -2 -12 2 1 4 -2 15
-7 25 -4 10 -5 21 -1 24 3 3 -2 12 -11 18 -14 11 -13 12 13 11 17 0 30 4 30
12 1 6 2 19 3 27 1 11 13 15 41 15 22 0 40 -4 40 -8z m27 -70 c17 -10 17 -11
-1 -31 -19 -21 -37 -28 -34 -13 3 14 -14 42 -23 37 -11 -7 1 -37 19 -51 12 -9
12 -13 2 -19 -7 -4 -16 -2 -20 6 -7 10 -11 10 -24 -1 -24 -19 -29 -7 -11 26 8
16 15 35 15 43 0 9 8 12 25 9 20 -4 23 -2 15 12 -5 10 -6 20 -3 24 4 4 10 -2
14 -13 4 -10 16 -24 26 -29z m-181 -17 c4 -8 11 -12 18 -8 6 3 8 2 4 -2 -5 -5
11 -28 35 -52 23 -24 42 -52 42 -64 0 -12 6 -24 13 -26 7 -3 12 5 12 21 0 14
-4 26 -10 26 -5 0 -10 7 -10 15 0 18 17 20 23 3 4 -13 97 76 97 93 0 11 59 0
86 -17 39 -24 39 -59 -2 -132 -20 -37 -52 -96 -71 -132 -46 -86 -63 -101 -114
-107 -34 -4 -50 0 -70 16 -30 23 -169 269 -169 298 0 30 28 62 63 72 45 13 47
13 53 -4z m224 -475 c15 -5 -28 -8 -110 -8 -84 0 -127 3 -115 8 25 11 191 11
225 0z"/>
<path d="M829 690 c-120 -63 -174 -243 -110 -368 59 -116 225 -135 328 -37 24
23 43 47 43 53 0 20 -16 14 -29 -11 -16 -30 -71 -67 -119 -79 -82 -21 -175 34
-200 119 -40 134 29 294 141 324 61 16 71 6 32 -36 -64 -68 -52 -156 23 -163
49 -5 82 36 82 102 0 28 -7 59 -15 70 -13 17 -13 21 0 30 12 8 -3 11 -62 13
-60 2 -86 -2 -114 -17z m177 -76 c7 -37 -11 -80 -41 -100 -18 -12 -24 -11 -43
2 -13 9 -22 26 -22 40 0 32 26 84 54 106 19 16 22 16 33 1 7 -9 15 -31 19 -49z"/>
<path d="M1382 677 c-31 -36 -41 -176 -18 -232 17 -40 38 -45 60 -13 13 19 16
19 22 5 6 -18 40 -33 63 -28 19 4 88 77 96 101 4 11 11 20 17 20 7 0 9 -20 5
-60 -4 -33 -3 -60 1 -60 4 0 16 23 27 52 25 65 47 76 44 21 -2 -21 1 -44 5
-51 18 -30 60 1 71 53 6 29 5 28 -15 -7 -28 -52 -49 -50 -47 4 2 34 -2 43 -17
46 -11 2 -23 -4 -30 -14 -9 -18 -10 -17 -16 6 -9 38 -35 36 -54 -4 -21 -45
-36 -54 -36 -23 0 37 -32 72 -56 62 -10 -5 -23 -9 -29 -9 -5 -1 -14 -12 -21
-26 -33 -73 -41 -85 -54 -85 -30 0 -30 53 1 120 34 76 39 135 10 135 -10 0
-23 -6 -29 -13z m35 -31 c-3 -19 -15 -54 -26 -78 l-21 -43 6 60 c6 64 18 95
36 95 7 0 9 -13 5 -34z m121 -143 c2 -23 -1 -33 -10 -33 -21 0 -38 21 -38 48
0 19 5 23 23 20 17 -2 23 -11 25 -35z m-32 -39 c28 -19 30 -29 8 -38 -41 -16
-68 37 -46 91 6 15 8 13 10 -10 2 -16 14 -34 28 -43z"/>
<path d="M1100 530 c-29 -29 -27 -94 2 -114 31 -22 45 -20 72 9 19 21 25 23
30 10 6 -18 47 -20 64 -3 9 9 12 7 12 -9 0 -14 -13 -29 -35 -43 -19 -12 -38
-33 -41 -46 -7 -26 10 -54 31 -54 20 0 54 48 61 87 4 19 17 45 30 58 13 13 24
30 24 37 0 7 -11 0 -25 -17 l-24 -30 0 25 c0 14 4 43 9 65 5 22 7 42 4 44 -8
8 -24 -22 -24 -46 0 -30 -43 -79 -60 -68 -9 5 -11 22 -7 56 3 27 3 49 -1 49
-4 0 -16 -23 -27 -52 -23 -58 -46 -79 -72 -62 -27 17 -26 31 2 38 33 8 53 49
35 71 -17 20 -36 19 -60 -5z m50 -20 c0 -16 -26 -40 -44 -40 -11 0 -6 36 6 48
18 18 38 14 38 -8z m125 -152 c-4 -13 -9 -31 -11 -40 -6 -21 -44 -24 -44 -4 0
17 38 66 51 66 6 0 7 -10 4 -22z"/>
<path d="M1320 285 c0 -30 3 -35 23 -35 20 1 20 2 4 11 -12 7 -15 17 -11 35 4
14 2 24 -5 24 -6 0 -11 -16 -11 -35z"/>
<path d="M1433 288 c1 -25 7 -33 22 -33 16 0 20 7 22 35 1 33 1 33 -5 6 -10
-40 -29 -44 -36 -7 l-6 31 3 -32z"/>
<path d="M1562 301 c9 -15 9 -23 -1 -35 -8 -9 -9 -16 -3 -16 6 0 13 6 16 13 5
10 7 10 12 0 3 -7 10 -13 15 -13 6 0 6 7 0 18 -6 11 -6 24 0 35 7 11 7 17 0
17 -5 0 -12 -6 -15 -12 -5 -10 -7 -10 -12 0 -3 6 -10 12 -15 12 -5 0 -4 -9 3
-19z"/>
<path d="M1680 285 c0 -32 3 -35 28 -34 16 1 20 3 10 6 -10 2 -18 8 -18 13 0
5 8 11 18 13 16 4 16 5 0 6 -10 0 -18 5 -18 10 0 5 8 12 18 14 10 3 6 5 -10 6
-25 1 -28 -2 -28 -34z"/>
<path d="M1265 124 c-139 -59 -169 -64 -163 -27 2 10 -4 19 -14 21 -13 2 -18
-3 -18 -17 0 -23 -30 -35 -76 -29 -20 2 -29 8 -28 21 1 9 -3 17 -8 17 -5 0 -8
-10 -6 -22 3 -22 8 -23 103 -25 93 -1 106 1 182 33 113 47 189 46 177 -2 -7
-26 13 -33 33 -13 8 8 18 6 37 -6 18 -12 35 -15 54 -10 15 3 49 6 75 5 27 -1
55 5 64 12 12 10 17 9 28 -5 7 -9 19 -17 28 -17 22 0 29 27 11 44 -13 13 -12
16 5 26 36 19 89 10 173 -27 46 -20 95 -35 111 -34 46 3 61 2 94 -5 18 -3 44
-3 58 0 25 6 34 29 15 41 -6 4 -9 1 -8 -5 2 -7 -4 -17 -14 -23 -21 -14 -98 8
-98 28 0 8 -4 15 -10 15 -5 0 -10 -9 -10 -20 0 -29 -30 -26 -120 15 -89 40
-186 49 -211 19 -17 -21 -84 -54 -109 -54 -25 0 -38 29 -19 41 10 6 4 9 -18 9
-17 0 -35 -4 -38 -10 -4 -6 1 -7 10 -3 13 4 16 1 13 -13 -6 -34 -61 -30 -126
10 -68 43 -96 44 -177 10z"/>
</g>
</svg>
